<mxfile host="app.diagrams.net" agent="Mozilla/5.0 (Windows NT 10.0; Win64; x64) AppleWebKit/537.36 (KHTML, like Gecko) Chrome/137.0.0.0 Safari/537.36 Edg/137.0.0.0" version="28.2.1">
  <diagram id="19TZ6Xefd7iSO5I1MBrT" name="ページ1">
    <mxGraphModel dx="778" dy="460" grid="1" gridSize="10" guides="1" tooltips="1" connect="1" arrows="1" fold="1" page="1" pageScale="1" pageWidth="827" pageHeight="1169" math="0" shadow="0">
      <root>
        <mxCell id="0" />
        <mxCell id="1" parent="0" />
        <mxCell id="crC90OVR9CIPfXOOq_63-2" value="学生" style="shape=umlActor;verticalLabelPosition=bottom;verticalAlign=top;html=1;outlineConnect=0;" vertex="1" parent="1">
          <mxGeometry x="80" y="90" width="30" height="60" as="geometry" />
        </mxCell>
        <mxCell id="crC90OVR9CIPfXOOq_63-3" value="メニュー&lt;div&gt;画面&lt;/div&gt;" style="shape=umlBoundary;whiteSpace=wrap;html=1;fillColor=#d5e8d4;strokeColor=#82b366;" vertex="1" parent="1">
          <mxGeometry x="200" y="50" width="70" height="60" as="geometry" />
        </mxCell>
        <mxCell id="crC90OVR9CIPfXOOq_63-5" value="学生&lt;span style=&quot;background-color: transparent; color: light-dark(rgb(0, 0, 0), rgb(255, 255, 255));&quot;&gt;登録&lt;/span&gt;&lt;div&gt;&lt;span style=&quot;background-color: transparent; color: light-dark(rgb(0, 0, 0), rgb(255, 255, 255));&quot;&gt;画面&lt;/span&gt;&lt;/div&gt;" style="shape=umlBoundary;whiteSpace=wrap;html=1;fillColor=#d5e8d4;strokeColor=#82b366;" vertex="1" parent="1">
          <mxGeometry x="200" y="180" width="70" height="60" as="geometry" />
        </mxCell>
        <mxCell id="crC90OVR9CIPfXOOq_63-6" value="表示&lt;div&gt;（する）&lt;/div&gt;" style="ellipse;shape=umlControl;whiteSpace=wrap;html=1;fillColor=#f8cecc;strokeColor=#b85450;" vertex="1" parent="1">
          <mxGeometry x="350" y="60" width="60" height="70" as="geometry" />
        </mxCell>
        <mxCell id="crC90OVR9CIPfXOOq_63-7" value="学生情報&lt;div&gt;登録&lt;/div&gt;" style="ellipse;shape=umlControl;whiteSpace=wrap;html=1;fillColor=#f8cecc;strokeColor=#b85450;" vertex="1" parent="1">
          <mxGeometry x="350" y="170" width="60" height="70" as="geometry" />
        </mxCell>
        <mxCell id="crC90OVR9CIPfXOOq_63-8" value="学生オブジェクト" style="ellipse;shape=umlEntity;whiteSpace=wrap;html=1;fillColor=#dae8fc;strokeColor=#6c8ebf;" vertex="1" parent="1">
          <mxGeometry x="490" y="140" width="60" height="60" as="geometry" />
        </mxCell>
        <mxCell id="crC90OVR9CIPfXOOq_63-9" value="" style="endArrow=classic;html=1;rounded=0;entryX=-0.019;entryY=0.5;entryDx=0;entryDy=0;entryPerimeter=0;" edge="1" parent="1" target="crC90OVR9CIPfXOOq_63-3">
          <mxGeometry width="50" height="50" relative="1" as="geometry">
            <mxPoint x="120" y="120" as="sourcePoint" />
            <mxPoint x="420" y="220" as="targetPoint" />
          </mxGeometry>
        </mxCell>
        <mxCell id="crC90OVR9CIPfXOOq_63-10" value="メニュー画面を&lt;div&gt;クリックする&lt;/div&gt;" style="text;html=1;align=center;verticalAlign=middle;resizable=0;points=[];autosize=1;strokeColor=none;fillColor=none;" vertex="1" parent="1">
          <mxGeometry x="80" y="50" width="110" height="40" as="geometry" />
        </mxCell>
        <mxCell id="crC90OVR9CIPfXOOq_63-11" value="" style="endArrow=classic;html=1;rounded=0;" edge="1" parent="1">
          <mxGeometry width="50" height="50" relative="1" as="geometry">
            <mxPoint x="120" y="140" as="sourcePoint" />
            <mxPoint x="200" y="210" as="targetPoint" />
          </mxGeometry>
        </mxCell>
        <mxCell id="crC90OVR9CIPfXOOq_63-12" value="学生情報を&lt;div&gt;入力する&lt;/div&gt;" style="text;html=1;align=center;verticalAlign=middle;resizable=0;points=[];autosize=1;strokeColor=none;fillColor=none;" vertex="1" parent="1">
          <mxGeometry x="95" y="185" width="80" height="40" as="geometry" />
        </mxCell>
        <mxCell id="crC90OVR9CIPfXOOq_63-13" value="" style="endArrow=classic;html=1;rounded=0;exitX=1.029;exitY=0.533;exitDx=0;exitDy=0;exitPerimeter=0;entryX=-0.022;entryY=0.543;entryDx=0;entryDy=0;entryPerimeter=0;" edge="1" parent="1" source="crC90OVR9CIPfXOOq_63-3" target="crC90OVR9CIPfXOOq_63-6">
          <mxGeometry width="50" height="50" relative="1" as="geometry">
            <mxPoint x="370" y="270" as="sourcePoint" />
            <mxPoint x="420" y="220" as="targetPoint" />
          </mxGeometry>
        </mxCell>
        <mxCell id="crC90OVR9CIPfXOOq_63-14" value="" style="endArrow=classic;html=1;rounded=0;exitX=0.1;exitY=0.895;exitDx=0;exitDy=0;exitPerimeter=0;entryX=0.99;entryY=0.222;entryDx=0;entryDy=0;entryPerimeter=0;" edge="1" parent="1" source="crC90OVR9CIPfXOOq_63-6" target="crC90OVR9CIPfXOOq_63-5">
          <mxGeometry width="50" height="50" relative="1" as="geometry">
            <mxPoint x="370" y="270" as="sourcePoint" />
            <mxPoint x="420" y="220" as="targetPoint" />
          </mxGeometry>
        </mxCell>
        <mxCell id="crC90OVR9CIPfXOOq_63-15" value="" style="endArrow=classic;html=1;rounded=0;exitX=1.019;exitY=0.556;exitDx=0;exitDy=0;exitPerimeter=0;entryX=0.011;entryY=0.619;entryDx=0;entryDy=0;entryPerimeter=0;" edge="1" parent="1" source="crC90OVR9CIPfXOOq_63-5" target="crC90OVR9CIPfXOOq_63-7">
          <mxGeometry width="50" height="50" relative="1" as="geometry">
            <mxPoint x="370" y="270" as="sourcePoint" />
            <mxPoint x="420" y="220" as="targetPoint" />
          </mxGeometry>
        </mxCell>
        <mxCell id="crC90OVR9CIPfXOOq_63-16" value="" style="endArrow=classic;startArrow=classic;html=1;rounded=0;entryX=0;entryY=0.5;entryDx=0;entryDy=0;exitX=1;exitY=0.543;exitDx=0;exitDy=0;exitPerimeter=0;fontColor=#000000;strokeColor=#FF0000;" edge="1" parent="1" source="crC90OVR9CIPfXOOq_63-7" target="crC90OVR9CIPfXOOq_63-8">
          <mxGeometry width="50" height="50" relative="1" as="geometry">
            <mxPoint x="370" y="270" as="sourcePoint" />
            <mxPoint x="420" y="220" as="targetPoint" />
          </mxGeometry>
        </mxCell>
        <mxCell id="crC90OVR9CIPfXOOq_63-17" value="・登録の成功、失敗&lt;div&gt;・すでに存在する学生かもしれない&lt;/div&gt;" style="text;html=1;align=left;verticalAlign=middle;resizable=0;points=[];autosize=1;strokeColor=none;fillColor=none;" vertex="1" parent="1">
          <mxGeometry x="414" y="220" width="220" height="40" as="geometry" />
        </mxCell>
        <mxCell id="crC90OVR9CIPfXOOq_63-18" value="&lt;b&gt;①境界オブジェクト&lt;/b&gt;&lt;div&gt;&lt;b&gt;②制御オブジェクト&lt;/b&gt;&lt;/div&gt;&lt;div&gt;&lt;b&gt;③実体オブジェクト&lt;/b&gt;&lt;/div&gt;" style="text;html=1;align=center;verticalAlign=middle;resizable=0;points=[];autosize=1;strokeColor=none;fillColor=none;" vertex="1" parent="1">
          <mxGeometry x="60" y="250" width="130" height="60" as="geometry" />
        </mxCell>
      </root>
    </mxGraphModel>
  </diagram>
</mxfile>
